<svg width="16" height="13" fill="none" xmlns="http://www.w3.org/2000/svg"><path d="M15.178 4.02c0 1.239 0 2.428-.007 3.618 0 .097-.048.195-.091.287-.726 1.61-1.458 3.214-2.184 4.825-.085.189-.183.25-.39.25-2.752-.006-5.509-.006-8.26 0-.275 0-.342-.08-.342-.348.006-2.714 0-5.423.012-8.137a.98.98 0 01.171-.531C4.96 2.739 5.857 1.5 6.73.257c.134-.19.268-.263.5-.257.567.019 1.134.006 1.738.006-.012.3-.018.58-.036.86a144.38 144.38 0 01-.22 2.856c-.024.262.073.305.305.305 1.922-.007 3.843-.007 5.759-.007h.402zM3 13H0V4h3v9z" opacity=".5" fill="#000"/></svg>