<?xml version="1.0" encoding="UTF-8"?>
<!DOCTYPE svg PUBLIC "-//W3C//DTD SVG 1.1//EN" "http://www.w3.org/Graphics/SVG/1.1/DTD/svg11.dtd">
<!-- Creator: CorelDRAW 2019 (64-Bit) -->
<svg xmlns="http://www.w3.org/2000/svg" xml:space="preserve" width="0.208331in" height="0.209602in" version="1.1" style="shape-rendering:geometricPrecision; text-rendering:geometricPrecision; image-rendering:optimizeQuality; fill-rule:evenodd; clip-rule:evenodd"
viewBox="0 0 5.74 5.77"
 xmlns:xlink="http://www.w3.org/1999/xlink"
 xmlns:xodm="http://www.corel.com/coreldraw/odm/2003">
 <defs>
  <style type="text/css">
   <![CDATA[
    .fil0 {fill:#1E2436}
   ]]>
  </style>
 </defs>
 <g id="Layer_x0020_1">
  <metadata id="CorelCorpID_0Corel-Layer"/>
  <path class="fil0" d="M5.5 4.71l-0.64 0c-0.1,-0.34 -0.42,-0.59 -0.8,-0.59 -0.38,0 -0.69,0.25 -0.8,0.59l-3.03 0c-0.13,0 -0.24,0.11 -0.24,0.24 0,0.13 0.11,0.24 0.24,0.24l3.03 0c0.1,0.34 0.42,0.59 0.8,0.59 0.38,0 0.69,-0.25 0.8,-0.59l0.64 0c0.13,0 0.24,-0.11 0.24,-0.24 0,-0.13 -0.11,-0.24 -0.24,-0.24zm-1.43 0.59c-0.2,0 -0.36,-0.16 -0.36,-0.36 0,-0.2 0.16,-0.36 0.36,-0.36 0.2,0 0.36,0.16 0.36,0.36 0,0.2 -0.16,0.36 -0.36,0.36z"/>
  <path class="fil0" d="M5.5 0.59l-0.64 0c-0.1,-0.34 -0.42,-0.59 -0.8,-0.59 -0.38,0 -0.69,0.25 -0.8,0.59l-3.03 0c-0.13,0 -0.24,0.11 -0.24,0.24 0,0.13 0.11,0.24 0.24,0.24l3.03 0c0.1,0.34 0.42,0.59 0.8,0.59 0.38,0 0.69,-0.25 0.8,-0.59l0.64 0c0.13,0 0.24,-0.11 0.24,-0.24 0,-0.13 -0.11,-0.24 -0.24,-0.24zm-1.43 0.59c-0.2,0 -0.36,-0.16 -0.36,-0.36 0,-0.2 0.16,-0.36 0.36,-0.36 0.2,0 0.36,0.16 0.36,0.36 0,0.2 -0.16,0.36 -0.36,0.36z"/>
  <path class="fil0" d="M5.5 2.64l-3.03 0c-0.1,-0.34 -0.42,-0.59 -0.8,-0.59 -0.38,0 -0.69,0.25 -0.8,0.59l-0.64 0c-0.13,0 -0.24,0.11 -0.24,0.24 0,0.13 0.11,0.24 0.24,0.24l0.64 0c0.1,0.34 0.42,0.59 0.8,0.59 0.38,0 0.69,-0.25 0.8,-0.59l3.03 0c0.13,0 0.24,-0.11 0.24,-0.24 0,-0.13 -0.11,-0.24 -0.24,-0.24zm-3.82 0.59c-0.2,0 -0.36,-0.16 -0.36,-0.36 0,-0.2 0.16,-0.36 0.36,-0.36 0.2,0 0.36,0.16 0.36,0.36 0,0.2 -0.16,0.36 -0.36,0.36z"/>
 </g>
</svg>
