<svg width="18" height="18" viewBox="0 0 18 18" fill="none" xmlns="http://www.w3.org/2000/svg">
<path d="M16.5 6.22342C16.5 7.44729 16.5 8.62293 16.494 9.79858C16.494 9.89504 16.4457 9.9915 16.4035 10.0819C15.6861 11.6736 14.9626 13.2592 14.2452 14.8508C14.1608 15.0377 14.0643 15.098 13.8593 15.098C11.1403 15.092 8.41519 15.092 5.69613 15.098C5.42483 15.098 5.35851 15.0196 5.35851 14.7544C5.36454 12.0715 5.35851 9.39464 5.37057 6.71176C5.37057 6.53692 5.43689 6.33194 5.53938 6.18724C6.40152 4.95734 7.28777 3.73346 8.14991 2.50356C8.28255 2.31666 8.41519 2.24432 8.64429 2.25035C9.20498 2.26843 9.76567 2.25637 10.3625 2.25637C10.3505 2.55179 10.3444 2.82912 10.3264 3.10646C10.26 4.04697 10.1937 4.98748 10.1093 5.928C10.0852 6.18724 10.1817 6.22945 10.4108 6.22945C12.3099 6.22342 14.209 6.22342 16.1021 6.22342C16.2287 6.22342 16.3493 6.22342 16.5 6.22342Z" fill="white"/>
<path d="M4.46493 15.0979C3.46916 15.0979 2.49577 15.0979 1.5 15.0979C1.5 12.131 1.5 9.17616 1.5 6.20312C2.47899 6.20312 3.45797 6.20312 4.46493 6.20312C4.46493 9.15792 4.46493 12.1127 4.46493 15.0979Z" fill="white"/>
</svg>
