<svg width="196" height="32" viewBox="0 0 196 32" fill="none" xmlns="http://www.w3.org/2000/svg">
<path d="M185.493 24.3218C185.493 24.5418 185.493 24.7178 185.493 24.8938C185.493 27.0279 185.493 29.1619 185.493 31.274C185.493 31.406 185.493 31.56 185.493 31.692C185.493 31.868 185.383 31.978 185.207 32C185.119 32 185.031 32 184.943 32C183.754 32 182.543 32 181.354 32C181.265 32 181.177 32 181.089 32C180.869 32 180.759 31.89 180.759 31.67C180.759 31.516 180.759 31.362 180.759 31.186C180.759 29.0959 180.759 27.0059 180.759 24.8938C180.759 24.7178 180.737 24.5418 180.737 24.3438C180.561 24.3218 180.429 24.2998 180.297 24.2998C179.262 24.2998 178.227 24.3218 177.17 24.2998C174.307 24.2338 171.753 22.3857 170.762 19.8116C170.41 18.9096 170.234 17.9855 170.256 17.0175C170.256 16.3355 170.256 15.6534 170.256 14.9494C170.278 11.9573 172.039 9.5152 174.682 8.39316C175.65 7.97514 176.641 7.75514 177.698 7.77714C178.535 7.79914 179.394 7.77714 180.231 7.77714C180.715 7.77714 180.737 7.75514 180.737 7.27112C180.737 5.46705 180.737 3.68498 180.737 1.88092C180.737 1.79291 180.737 1.70491 180.737 1.61691C180.737 1.3749 180.869 1.26489 181.089 1.26489C181.354 1.26489 181.618 1.26489 181.882 1.26489C182.895 1.26489 183.93 1.26489 184.943 1.26489C185.405 1.26489 185.449 1.30889 185.449 1.77091C185.449 3.57498 185.449 5.35705 185.449 7.16111C185.449 7.75514 185.449 7.75513 186.022 7.75513C186.991 7.75513 187.959 7.75513 188.928 7.75513C190.734 7.75513 192.297 8.43716 193.618 9.62521C195.182 11.0333 195.931 12.8373 195.975 14.9054C195.997 15.6534 196.019 16.4235 195.975 17.1715C195.82 19.9656 194.565 22.0997 192.077 23.4637C191.086 23.9917 190.007 24.2778 188.884 24.2558C187.915 24.2558 186.947 24.2558 185.978 24.2558C185.868 24.3218 185.713 24.3218 185.493 24.3218ZM185.493 11.6273C185.493 12.0453 185.493 12.3973 185.493 12.7273C185.493 15.1254 185.493 17.5015 185.493 19.8996C185.493 20.4056 185.515 20.4276 186.022 20.4496C186.528 20.4496 187.035 20.4496 187.563 20.4496C189.148 20.4936 190.69 19.3276 191.108 17.7435C191.372 16.7535 191.328 15.7414 191.218 14.7514C191.064 13.4093 190.338 12.4413 189.06 11.9133C187.915 11.4293 186.748 11.7593 185.493 11.6273ZM180.715 11.6493C179.9 11.6493 179.152 11.6273 178.425 11.6493C176.95 11.6933 175.65 12.7273 175.21 14.1354C174.88 15.2134 174.924 16.3135 175.1 17.3695C175.32 18.7775 176.179 19.7456 177.544 20.2296C178.513 20.5816 179.526 20.3836 180.539 20.4056C180.605 20.4056 180.715 20.2516 180.759 20.1636C180.803 20.0536 180.781 19.9216 180.781 19.7896C180.781 17.2815 180.781 14.7514 180.781 12.2433C180.759 12.0893 180.737 11.8913 180.715 11.6493Z" fill="#1E2436"/>
<path d="M79.2046 15.3673C79.0725 15.2573 79.0064 15.1913 78.9403 15.1473C78.0816 14.8173 77.465 14.2233 76.9806 13.4533C75.8576 11.6712 74.7566 9.91112 73.6556 8.12906C73.6116 8.06305 73.6116 7.99705 73.5676 7.88705C73.6997 7.86505 73.8098 7.82104 73.9199 7.82104C75.4392 7.82104 76.9586 7.82104 78.4559 7.82104C78.8082 7.82104 79.0064 7.95305 79.1605 8.23906C79.667 9.14109 80.1955 10.0431 80.7239 10.9452C80.9001 11.2312 81.0762 11.5172 81.2744 11.7812C81.8689 12.6172 82.6837 13.0572 83.6966 13.0792C85.1499 13.1232 86.5811 13.1012 88.0344 13.1012C88.4308 13.1012 88.4968 13.0352 88.4968 12.5732C88.4968 11.2092 88.4968 9.86712 88.4968 8.50307C88.4968 8.30506 88.4968 8.12906 88.4968 7.95305C88.8932 7.82104 92.6145 7.79904 93.2751 7.90905C93.2751 8.08505 93.2971 8.26106 93.2971 8.45907C93.2971 9.82312 93.2971 11.1652 93.2971 12.5292C93.2971 13.1012 93.2971 13.1232 93.8917 13.1232C95.1688 13.1232 96.4679 13.1232 97.7451 13.1232C99.0442 13.1232 100.057 12.6172 100.74 11.4952C101.4 10.3951 102.039 9.2731 102.677 8.17306C102.81 7.95305 102.942 7.88705 103.184 7.88705C104.813 7.88705 106.421 7.88705 108.05 7.88705C108.072 7.88705 108.116 7.90905 108.204 7.93105C108.16 8.04105 108.16 8.15106 108.094 8.23906C106.971 10.0431 105.87 11.8252 104.747 13.6073C104.285 14.3333 103.668 14.9053 102.832 15.2133C102.766 15.2353 102.722 15.2793 102.611 15.3453C102.699 15.4113 102.744 15.4993 102.81 15.5213C103.668 15.7413 104.241 16.3134 104.681 17.0614C105.364 18.2274 106.024 19.4155 106.707 20.5815C107.39 21.7696 108.072 22.9576 108.755 24.1457C108.777 24.1677 108.755 24.2117 108.777 24.2997C108.645 24.3217 108.513 24.3657 108.403 24.3657C106.883 24.3657 105.364 24.3657 103.867 24.3877C103.558 24.3877 103.382 24.2557 103.25 24.0137C102.215 22.2096 101.136 20.4055 100.101 18.5794C99.5287 17.5894 98.7139 17.0174 97.5469 16.9954C96.2257 16.9954 94.9046 16.9734 93.5834 16.9734C93.5393 16.9734 93.4953 16.9954 93.3852 17.0394C93.3632 17.2374 93.3412 17.4354 93.3412 17.6334C93.3412 19.7015 93.3412 21.7476 93.3412 23.8156C93.3412 24.3657 93.3412 24.3877 92.7907 24.3877C91.5796 24.3877 90.3685 24.3877 89.1354 24.3877C89.0694 24.3877 89.0033 24.3877 88.9152 24.3877C88.5409 24.3657 88.4968 24.3217 88.4968 23.9476C88.4968 23.2876 88.5189 22.6496 88.5189 21.9896C88.5189 20.5595 88.5189 19.1295 88.5189 17.7214C88.5189 17.5894 88.5189 17.4794 88.5189 17.3474C88.5189 17.1274 88.4088 16.9734 88.1666 16.9954C86.8013 17.0174 85.4141 16.9954 84.0489 17.0614C83.1681 17.1054 82.4415 17.5674 81.957 18.3374C81.4065 19.2175 80.8781 20.1195 80.3716 21.0215C79.7771 22.0336 79.1826 23.0456 78.588 24.0797C78.4559 24.3217 78.2798 24.4317 77.9935 24.4317C76.4521 24.4317 74.9328 24.4317 73.3914 24.4097C73.2813 24.4097 73.1712 24.3657 72.995 24.3217C73.2593 23.8816 73.4795 23.4856 73.6997 23.1116C74.8227 21.1315 75.9457 19.1735 77.0687 17.1934C77.5091 16.4014 78.1256 15.7853 79.0284 15.5433C79.0504 15.4333 79.0945 15.3893 79.2046 15.3673Z" fill="#1E2436"/>
<path d="M4.66816 10.0212C4.77826 9.95518 4.88836 9.91117 4.97643 9.82317C5.8352 9.07514 6.89214 8.76713 7.99312 8.74513C9.64459 8.70113 11.2961 8.70113 12.9475 8.74513C14.3348 8.76713 15.678 9.03114 16.889 9.75717C18.8708 10.9232 19.9498 12.6833 20.148 14.9494C20.236 15.9394 20.2581 16.9514 20.17 17.9635C19.9718 20.1856 18.8268 21.9016 16.9991 23.1337C15.744 23.9697 14.3788 24.3657 12.8595 24.3437C10.7456 24.3217 8.63169 24.3657 6.51781 24.3217C5.08653 24.2777 3.74334 23.8377 2.59832 22.9577C1.2331 21.9016 0.484432 20.4716 0.176157 18.8215C0.0440392 18.1615 0 17.4575 0 16.7754C0 14.4433 0 12.1333 0 9.82317C0 8.43712 0.242216 7.09507 0.880785 5.84102C1.80561 3.99295 3.28092 2.73891 5.15259 1.94688C6.40771 1.41886 7.72889 1.24285 9.05006 1.06684C10.0189 0.934839 11.0098 0.802834 11.9787 0.648829C13.0797 0.494823 14.1806 0.340817 15.2816 0.186811C15.656 0.14281 16.0523 0.0768072 16.4266 0.0108047C16.6909 -0.0331969 16.823 0.0548064 16.867 0.318816C16.9991 1.15485 17.1533 1.99088 17.2854 2.80491C17.3074 2.95891 17.3294 3.11292 17.3735 3.26693C17.4395 3.53094 17.3294 3.66294 17.0652 3.70694C16.5367 3.79495 16.0303 3.88295 15.5018 3.97095C13.1898 4.30096 10.8777 4.63098 8.54361 4.96099C7.75091 5.07099 6.98022 5.247 6.29761 5.68702C5.32875 6.30304 4.80028 7.20507 4.6021 8.30511C4.51402 8.83313 4.53604 9.38315 4.51402 9.91117C4.58008 9.99918 4.62412 9.99918 4.66816 10.0212ZM10.151 12.5953C9.62257 12.5953 9.0941 12.5953 8.56563 12.5953C7.9711 12.5953 7.42061 12.6613 6.87012 12.8813C5.8352 13.2773 5.15259 14.0033 4.88836 15.1034C4.7122 15.8294 4.7122 16.5774 4.77826 17.3034C4.86634 18.2935 5.21865 19.1515 6.03338 19.7675C6.67195 20.2296 7.37657 20.4496 8.14726 20.4496C9.33632 20.4496 10.5034 20.4496 11.6924 20.4716C12.2649 20.4716 12.8154 20.3836 13.3439 20.1636C14.2027 19.7895 14.8632 19.1955 15.1935 18.3155C15.6559 17.0614 15.6119 15.8074 15.1935 14.5533C14.9293 13.8053 14.4229 13.2993 13.7182 12.9913C13.2118 12.7713 12.6833 12.6173 12.1328 12.6393C11.4722 12.5953 10.8116 12.5953 10.151 12.5953Z" fill="#1E2436"/>
<path d="M54.2783 24.3218C54.2783 24.5638 54.2783 24.7178 54.2783 24.8718C54.2783 27.0279 54.2783 29.1619 54.2783 31.318C54.2783 31.428 54.2783 31.538 54.2783 31.626C54.2783 31.89 54.1462 32.0001 53.882 32.0001C53.5737 32.0001 53.2874 32.0001 52.9792 32.0001C51.9883 32.0001 50.9974 32.0001 50.0285 32.0001C49.5441 32.0001 49.5221 31.9561 49.5221 31.494C49.5221 25.9938 49.5221 20.5156 49.5221 15.0154C49.5221 13.4534 49.8524 11.9793 50.7332 10.6593C51.614 9.36121 52.825 8.50318 54.3444 8.08516C55.1151 7.86515 55.9078 7.79915 56.7005 7.79915C59.0346 7.79915 61.3907 7.73315 63.7247 7.82115C66.4332 7.93116 68.4369 9.2072 69.626 11.6713C70.0884 12.6393 70.2425 13.6954 70.2646 14.7514C70.2866 16.0275 70.3526 17.2815 70.1545 18.5356C69.7581 20.8676 68.547 22.6057 66.4111 23.6177C65.4203 24.1018 64.3413 24.2998 63.2403 24.2778C60.4658 24.2778 57.6693 24.2778 54.8949 24.2778C54.7187 24.3218 54.5426 24.3218 54.2783 24.3218ZM54.3224 20.4276C54.5205 20.4496 54.7407 20.4716 54.9389 20.4716C57.273 20.4716 59.5851 20.4716 61.9191 20.4716C62.2494 20.4716 62.6017 20.4716 62.91 20.4056C64.1872 20.1416 65.0459 19.4816 65.3322 18.2715C65.6625 16.8415 65.6625 15.3674 65.3322 13.9374C65.112 12.9913 64.5174 12.3313 63.5926 11.9573C63.1302 11.7813 62.6458 11.6933 62.1393 11.6713C60.664 11.6713 59.1887 11.6713 57.7134 11.6713C57.4932 11.6713 57.295 11.6933 57.0748 11.7373C56.15 11.9353 55.3573 12.3533 54.8729 13.2114C54.5205 13.8054 54.3003 14.4654 54.3003 15.1694C54.3003 16.8195 54.3003 18.4695 54.2783 20.1196C54.2783 20.2076 54.3003 20.2956 54.3224 20.4276Z" fill="#1E2436"/>
<path d="M150.262 24.3217C150.262 24.5417 150.24 24.6957 150.24 24.8497C150.24 27.0058 150.24 29.1399 150.24 31.296C150.24 31.406 150.24 31.516 150.24 31.604C150.218 31.934 150.152 32 149.821 32C148.522 32 147.223 32 145.924 32C145.55 32 145.506 31.934 145.484 31.56C145.484 31.362 145.484 31.1639 145.484 30.9879C145.484 25.7517 145.484 20.4935 145.484 15.2574C145.484 14.2673 145.55 13.2993 145.88 12.3532C146.452 10.6152 147.531 9.31713 149.205 8.5031C150.174 8.04108 151.231 7.79907 152.31 7.79907C154.754 7.82107 157.198 7.77707 159.642 7.82107C162.505 7.88708 164.971 9.62514 165.852 12.3972C166.072 13.0573 166.204 13.7173 166.204 14.4213C166.204 15.7194 166.292 17.0394 166.138 18.3155C165.852 20.7796 164.597 22.6056 162.307 23.6837C161.36 24.1237 160.347 24.3217 159.29 24.3217C156.471 24.3217 153.653 24.3217 150.834 24.3217C150.636 24.3217 150.482 24.3217 150.262 24.3217ZM154.556 20.4935C155.613 20.4935 156.67 20.4935 157.727 20.4935C158.101 20.4935 158.475 20.4935 158.827 20.4275C160.237 20.1855 161.206 19.2395 161.382 17.8094C161.514 16.6874 161.536 15.5654 161.382 14.4433C161.162 12.8593 160.193 11.8912 158.805 11.8032C156.89 11.6712 154.974 11.6712 153.058 11.7812C151.869 11.8472 151.011 12.5953 150.548 13.7613C150.328 14.3333 150.262 14.9273 150.262 15.5214C150.262 16.9954 150.262 18.4695 150.262 19.9435C150.262 20.4715 150.262 20.4935 150.834 20.4935C152.045 20.4935 153.301 20.4935 154.556 20.4935Z" fill="#1E2436"/>
<path d="M113.907 7.86518C114.128 7.84317 114.282 7.82117 114.414 7.82117C117.717 7.82117 121.042 7.79917 124.345 7.84317C125.688 7.86518 126.965 8.21719 128.066 8.98722C129.167 9.75725 129.828 10.7913 130.07 12.0893C130.202 12.7714 130.246 13.4754 130.268 14.1794C130.29 15.5655 130.29 16.9515 130.268 18.3596C130.246 19.8556 129.784 21.1977 128.793 22.3197C127.67 23.5958 126.216 24.2558 124.565 24.2778C121.196 24.3438 117.827 24.3438 114.48 24.2778C113.093 24.2558 111.948 23.5738 111.089 22.4737C109.482 20.4496 109.636 17.5455 111.155 15.7855C112.146 14.6414 113.445 14.1134 114.942 14.0914C115.493 14.0914 116.043 14.0914 116.572 14.0914C119.324 14.0914 122.077 14.0914 124.807 14.0914C125.402 14.0914 125.468 14.0034 125.424 13.4094C125.358 12.4633 124.851 11.9133 123.794 11.6933C123.442 11.6273 123.09 11.6273 122.737 11.6273C120.051 11.6273 117.387 11.6273 114.7 11.6273C114.546 11.6273 114.392 11.6273 114.216 11.6053C114.04 11.5833 113.929 11.4733 113.929 11.2973C113.907 10.1973 113.907 9.05322 113.907 7.86518ZM120.447 17.5455C119.038 17.5455 117.629 17.5455 116.22 17.5455C116.065 17.5455 115.889 17.5235 115.735 17.5675C115.185 17.6555 114.744 17.9196 114.524 18.4476C114.304 18.9536 114.37 19.4596 114.722 19.8996C115.052 20.3176 115.493 20.4716 116.021 20.4716C118.444 20.4496 120.888 20.4716 123.31 20.4716C123.442 20.4716 123.552 20.4716 123.684 20.4496C124.631 20.3616 125.38 19.6136 125.49 18.6676C125.512 18.4916 125.512 18.3156 125.49 18.1396C125.468 17.5675 125.468 17.5455 124.895 17.5455C123.398 17.5455 121.923 17.5455 120.447 17.5455Z" fill="#1E2436"/>
<path d="M29.3962 7.88708C29.3962 11.2972 29.3962 14.7073 29.3962 18.0735C29.6825 18.1835 29.7705 18.0075 29.9027 17.8974C31.2679 16.6654 32.6331 15.4114 34.0203 14.1793C36.2663 12.1552 38.5123 10.1092 40.7363 8.06308C40.9345 7.88708 41.1327 7.79907 41.3969 7.79907C42.4979 7.79907 43.5768 7.79907 44.6778 7.79907C45.0522 7.79907 45.0962 7.84307 45.1182 8.21709C45.1182 8.30509 45.1182 8.39309 45.1182 8.4811C45.1182 13.5413 45.1182 18.6235 45.1182 23.6837C45.1182 23.8597 45.1182 24.0357 45.1182 24.1897C44.6338 24.3657 40.9345 24.3657 40.428 24.1897C40.428 22.4736 40.428 20.7356 40.428 18.9975C40.428 17.2814 40.428 15.5654 40.428 13.7833C40.2739 13.8713 40.2078 13.8713 40.1638 13.9153C36.993 16.8194 33.8442 19.7235 30.6733 22.6276C30.1449 23.1116 29.6384 23.5737 29.132 24.0577C28.9338 24.2337 28.7356 24.3217 28.4714 24.3217C27.3704 24.3217 26.2914 24.3217 25.1905 24.2997C24.728 24.2997 24.706 24.2337 24.706 23.8157C24.706 19.3275 24.706 14.8393 24.706 10.3512C24.706 9.64714 24.706 8.94311 24.706 8.23909C24.706 7.84307 24.7501 7.79907 25.1024 7.79907C26.4456 7.79907 27.7888 7.79907 29.1099 7.79907C29.176 7.82107 29.2641 7.84307 29.3962 7.88708Z" fill="#1E2436"/>
<path d="M137.887 24.3218C137.623 24.3218 137.358 24.2998 137.094 24.3218C136.257 24.3878 135.355 23.6178 135.289 22.6717C135.266 22.2097 135.244 21.7477 135.289 21.3077C135.377 20.3836 136.125 19.7236 137.072 19.7016C137.557 19.7016 138.019 19.7236 138.503 19.7016C139.494 19.6356 140.265 20.2516 140.463 21.2417C140.617 21.9457 140.639 22.6277 140.287 23.2877C139.957 23.9478 139.428 24.3438 138.658 24.3218C138.393 24.3218 138.129 24.3218 137.887 24.3218Z" fill="#1E2436"/>
</svg>
