<svg width="188" height="31" fill="none" xmlns="http://www.w3.org/2000/svg"><path d="M177.542 23.3v7.059c0 .17-.105.274-.274.295h-3.941c-.211 0-.316-.105-.316-.316v-6.491c0-.169-.021-.337-.021-.527-.169-.02-.295-.042-.422-.042-.99 0-1.981.021-2.992 0-2.74-.063-5.185-1.834-6.133-4.3a6.835 6.835 0 01-.485-2.676V14.32c.021-2.867 1.707-5.206 4.236-6.28.927-.401 1.876-.612 2.888-.59.8.02 1.622 0 2.423 0 .464 0 .485-.022.485-.486V1.549c0-.232.126-.337.337-.337h3.688c.443 0 .485.042.485.484V6.86c0 .569 0 .569.548.569h2.782c1.728 0 3.225.653 4.489 1.791 1.497 1.35 2.213 3.077 2.255 5.059.022.716.043 1.454 0 2.17-.147 2.677-1.348 4.721-3.73 6.028-.948.506-1.981.78-3.056.759h-2.782c-.105.063-.253.063-.464.063zm0-12.162v7.924c0 .486.021.507.506.528h1.475c1.518.042 2.993-1.075 3.394-2.593.253-.948.21-1.918.105-2.866-.147-1.286-.843-2.213-2.065-2.719-1.096-.463-2.213-.147-3.415-.274zm-4.573.021c-.78 0-1.496-.02-2.192 0-1.412.043-2.655 1.033-3.077 2.382-.316 1.033-.274 2.086-.105 3.098.21 1.349 1.032 2.276 2.339 2.74.927.337 1.897.147 2.866.169.064 0 .169-.148.211-.232.042-.106.021-.232.021-.358v-7.23a11.628 11.628 0 01-.063-.569zM75.81 14.721c-.127-.105-.19-.168-.253-.21-.822-.316-1.412-.885-1.876-1.623a675.376 675.376 0 01-3.182-5.1c-.043-.064-.043-.127-.085-.232.127-.021.232-.064.337-.064h4.342c.337 0 .527.127.674.4.485.865.991 1.73 1.497 2.593.168.274.337.548.527.801.569.801 1.349 1.223 2.318 1.244 1.391.042 2.761.02 4.152.02.38 0 .443-.063.443-.505V7.619c.379-.127 3.94-.148 4.573-.042 0 .168.021.337.021.527v3.899c0 .548 0 .569.57.569h3.687c1.244 0 2.213-.485 2.867-1.56.632-1.054 1.243-2.129 1.854-3.182.127-.211.253-.274.485-.274h4.658c.021 0 .063.02.147.042-.042.105-.042.21-.105.295-1.075 1.728-2.129 3.435-3.204 5.142-.442.696-1.032 1.244-1.833 1.539-.063.021-.106.063-.21.126.083.064.126.148.189.169.822.21 1.37.759 1.791 1.475.654 1.117 1.286 2.255 1.939 3.372l1.96 3.415c.021.02 0 .063.021.147-.126.021-.253.063-.358.063-1.454 0-2.908 0-4.341.021-.296 0-.464-.126-.59-.358-.991-1.728-2.024-3.456-3.014-5.206-.549-.948-1.328-1.496-2.445-1.517-1.265 0-2.53-.021-3.794-.021-.042 0-.084.021-.19.063-.02.19-.042.38-.042.57v5.921c0 .527 0 .549-.527.549h-3.709c-.358-.022-.4-.064-.4-.422 0-.632.02-1.243.02-1.876v-4.447c0-.21-.105-.358-.337-.337-1.306.021-2.634 0-3.94.063-.844.042-1.54.485-2.003 1.223a63.138 63.138 0 00-1.517 2.57c-.57.97-1.139 1.94-1.708 2.93-.126.232-.295.338-.569.338-1.475 0-2.93 0-4.404-.021-.106 0-.211-.043-.38-.085.253-.421.464-.8.675-1.159 1.075-1.897 2.15-3.773 3.224-5.67.422-.758 1.012-1.348 1.876-1.58.021-.105.063-.148.169-.169zM4.468 9.6c.105-.063.21-.106.295-.19.822-.716 1.834-1.011 2.888-1.033a88.913 88.913 0 014.742 0c1.327.022 2.613.274 3.772.97 1.897 1.117 2.93 2.803 3.12 4.974a16.5 16.5 0 01.02 2.887c-.19 2.129-1.285 3.773-3.035 4.953-1.2.8-2.508 1.18-3.962 1.16-2.023-.022-4.046.02-6.07-.022-1.37-.042-2.655-.464-3.751-1.307C1.18 20.981.464 19.611.169 18.03A10.118 10.118 0 010 16.07V9.41c0-1.328.232-2.613.843-3.815.885-1.77 2.297-2.971 4.089-3.73 1.201-.506 2.466-.674 3.73-.843.927-.126 1.876-.253 2.803-.4l3.162-.443c.358-.042.737-.105 1.095-.169.253-.042.38.043.422.295.127.801.274 1.602.4 2.382.022.148.043.295.085.443.063.252-.042.379-.295.421-.506.084-.99.169-1.497.253-2.213.316-4.426.632-6.66.948-.758.106-1.496.274-2.15.696-.927.59-1.432 1.454-1.622 2.508-.084.506-.063 1.033-.084 1.538.063.085.105.085.147.106zm5.248 2.466H8.198c-.569 0-1.095.063-1.622.274-.99.379-1.644 1.075-1.897 2.128-.169.696-.169 1.412-.106 2.108.085.948.422 1.77 1.202 2.36a3.362 3.362 0 002.023.654c1.138 0 2.255 0 3.393.02.548 0 1.075-.084 1.58-.294.823-.358 1.455-.928 1.771-1.77.443-1.202.4-2.403 0-3.605-.253-.716-.737-1.2-1.412-1.496-.485-.21-.99-.358-1.517-.337-.633-.042-1.265-.042-1.897-.042zM51.952 23.3v6.995c0 .253-.127.359-.38.359h-3.688c-.464 0-.485-.043-.485-.485V14.384c0-1.496.317-2.908 1.16-4.173.843-1.243 2.002-2.065 3.456-2.466.738-.21 1.496-.274 2.255-.274 2.234 0 4.49-.063 6.723.021 2.593.106 4.51 1.328 5.649 3.689.442.927.59 1.939.61 2.95.022 1.223.085 2.424-.105 3.625-.379 2.234-1.538 3.9-3.583 4.869-.948.463-1.98.653-3.034.632h-7.988c-.169.042-.337.042-.59.042zm.042-3.731c.19.02.4.042.59.042h6.681c.316 0 .653 0 .949-.063 1.222-.253 2.044-.885 2.318-2.045a9.205 9.205 0 000-4.152c-.21-.906-.78-1.538-1.665-1.896a4.411 4.411 0 00-1.391-.274H55.24c-.211 0-.4.02-.612.063-.885.19-1.644.59-2.107 1.412-.337.569-.548 1.201-.548 1.876 0 1.58 0 3.161-.021 4.742 0 .084.02.168.042.295zm91.827 3.731c0 .21-.021.357-.021.505v6.47c-.021.316-.084.38-.4.38h-3.731c-.358 0-.4-.064-.421-.422V14.615c0-.947.063-1.875.379-2.781.548-1.665 1.581-2.909 3.182-3.688a6.892 6.892 0 012.972-.675c2.34.021 4.679-.02 7.018.021 2.74.064 5.101 1.728 5.944 4.384.211.632.337 1.265.337 1.939 0 1.244.084 2.508-.063 3.73-.274 2.36-1.476 4.11-3.667 5.143-.907.421-1.876.611-2.888.611h-8.641zm4.11-3.668h3.035c.358 0 .716 0 1.054-.063 1.348-.232 2.276-1.138 2.444-2.508.127-1.075.148-2.15 0-3.225-.21-1.517-1.138-2.445-2.465-2.529a43.542 43.542 0 00-5.501-.021c-1.138.063-1.96.78-2.403 1.897-.211.548-.274 1.117-.274 1.686v4.236c0 .506 0 .527.548.527h3.562zM109.025 7.534c.211-.02.358-.042.485-.042 3.161 0 6.344-.02 9.505.021 1.286.021 2.508.359 3.562 1.096 1.054.738 1.686 1.729 1.918 2.972.126.653.168 1.328.189 2.002a127.27 127.27 0 010 4.005c-.021 1.433-.463 2.718-1.412 3.793-1.075 1.223-2.466 1.855-4.046 1.876-3.225.063-6.45.063-9.653 0-1.328-.021-2.424-.674-3.246-1.728-1.538-1.94-1.391-4.721.064-6.407.948-1.096 2.191-1.602 3.625-1.623h9.442c.569 0 .632-.084.59-.653-.064-.907-.548-1.434-1.56-1.644-.337-.064-.674-.064-1.012-.064h-7.692c-.148 0-.295 0-.464-.02-.169-.022-.274-.127-.274-.296-.021-1.053-.021-2.15-.021-3.288zm6.26 9.274h-4.047c-.148 0-.316-.021-.464.02-.527.085-.948.338-1.159.844-.211.485-.147.97.19 1.39.316.401.737.549 1.243.549 2.319-.021 4.658 0 6.976 0 .127 0 .232 0 .359-.021a1.93 1.93 0 001.728-1.707 2.038 2.038 0 000-.506c-.021-.548-.021-.57-.569-.57h-4.257zM28.136 7.555v9.759c.274.105.358-.064.485-.169 1.307-1.18 2.613-2.382 3.941-3.562a831.1 831.1 0 006.428-5.859.892.892 0 01.633-.253h3.14c.358 0 .4.042.421.4v15.302c-.463.168-4.004.168-4.489 0v-9.969c-.147.084-.21.084-.253.126-3.035 2.782-6.048 5.564-9.083 8.346-.506.464-.991.907-1.476 1.37a.892.892 0 01-.632.253c-1.054 0-2.087 0-3.14-.021-.443 0-.464-.063-.464-.464V7.893c0-.38.042-.422.38-.422h3.835c.063.021.148.042.274.084zM131.977 23.3c-.253 0-.506-.022-.759 0-.801.062-1.665-.675-1.728-1.582-.021-.442-.043-.885 0-1.306.084-.885.8-1.518 1.707-1.539.463 0 .906.021 1.37 0 .948-.063 1.686.527 1.875 1.476.148.674.169 1.327-.168 1.96-.316.632-.822 1.011-1.56.99h-.737z" fill="#fff"/></svg>