<svg width="26" height="26" viewBox="0 0 26 26" fill="none" xmlns="http://www.w3.org/2000/svg">
<path d="M25.6816 24.1535L19.431 17.9029C20.9804 16.0139 21.9143 13.5943 21.9143 10.9571C21.9143 4.90816 17.0061 0 10.9571 0C4.90286 0 0 4.90816 0 10.9571C0 17.0061 4.90286 21.9143 10.9571 21.9143C13.5943 21.9143 16.0086 20.9857 17.8976 19.4363L24.1482 25.6816C24.5727 26.1061 25.2571 26.1061 25.6816 25.6816C26.1061 25.2624 26.1061 24.5727 25.6816 24.1535ZM10.9571 19.7335C6.11265 19.7335 2.17551 15.7963 2.17551 10.9571C2.17551 6.11796 6.11265 2.17551 10.9571 2.17551C15.7963 2.17551 19.7388 6.11796 19.7388 10.9571C19.7388 15.7963 15.7963 19.7335 10.9571 19.7335Z" fill="#1E2436"/>
</svg>
