<svg width="35" height="35" fill="none" xmlns="http://www.w3.org/2000/svg"><circle opacity=".2" cx="17.5" cy="17.5" r="17.5" fill="#fff"/><path d="M27 11.776c-.67.3-1.383.5-2.126.598a3.748 3.748 0 001.623-2.093c-.713.437-1.5.745-2.34.917A3.655 3.655 0 0021.462 10c-2.043 0-3.688 1.7-3.688 3.786 0 .3.025.588.085.863-3.068-.154-5.782-1.662-7.606-3.959a3.885 3.885 0 00-.505 1.913c0 1.31.658 2.473 1.64 3.146a3.575 3.575 0 01-1.668-.467v.042c0 1.84 1.28 3.367 2.957 3.719-.3.084-.628.124-.968.124a3.18 3.18 0 01-.699-.064c.479 1.498 1.835 2.6 3.449 2.636A7.298 7.298 0 019 23.302 10.2 10.2 0 0014.661 25c6.79 0 10.503-5.77 10.503-10.77 0-.167-.006-.329-.014-.49A7.47 7.47 0 0027 11.777z" fill="#fff"/></svg>