<svg width="72" height="12" fill="none" xmlns="http://www.w3.org/2000/svg"><path d="M5.76 10.48a1.473 1.473 0 011.48.002l2.412 1.41c.578.337 1.284-.162 1.132-.793l-.633-2.626a1.393 1.393 0 01.466-1.397l2.12-1.773c.508-.426.235-1.233-.434-1.284L9.5 3.789a1.443 1.443 0 01-1.206-.85L7.199.445C6.94-.15 6.059-.15 5.8.446L4.708 2.932c-.21.48-.675.806-1.207.85l-2.804.23c-.669.05-.942.858-.433 1.283L2.383 7.07c.41.344.59.882.466 1.397l-.633 2.626c-.152.63.554 1.13 1.132.792L5.76 10.48z" fill="#5F7698"/><path d="M49.76 10.48a1.473 1.473 0 011.48.002l2.412 1.41c.578.337 1.284-.162 1.132-.793l-.633-2.626a1.393 1.393 0 01.466-1.397l2.12-1.773c.508-.426.235-1.233-.434-1.284l-2.804-.23a1.443 1.443 0 01-1.207-.85L51.2.445c-.258-.595-1.14-.595-1.398 0l-1.093 2.486c-.21.48-.675.806-1.206.85l-2.806.23c-.668.05-.941.858-.432 1.283l2.119 1.774c.41.344.59.882.466 1.397l-.633 2.626c-.152.63.554 1.13 1.132.792l2.412-1.404zm15 0a1.473 1.473 0 011.48.002l2.412 1.41c.578.337 1.284-.162 1.132-.793l-.633-2.626a1.393 1.393 0 01.466-1.397l2.12-1.773c.508-.426.235-1.233-.433-1.284l-2.805-.23a1.443 1.443 0 01-1.206-.85L66.199.445c-.258-.595-1.14-.595-1.398 0l-1.093 2.486c-.21.48-.675.806-1.206.85l-2.806.23c-.668.05-.941.858-.432 1.283l2.119 1.774c.41.344.59.882.466 1.397l-.633 2.626c-.152.63.554 1.13 1.132.792l2.412-1.404zm-29.443 0a1.27 1.27 0 011.366.002l2.227 1.41c.533.337 1.185-.162 1.045-.793l-.585-2.626a1.462 1.462 0 01.43-1.397l1.957-1.773c.47-.426.217-1.233-.4-1.284l-2.588-.23a1.341 1.341 0 01-1.114-.85L36.645.445a.69.69 0 00-1.29 0l-1.01 2.486a1.34 1.34 0 01-1.113.85l-2.589.23c-.617.05-.87.858-.4 1.283L32.2 7.07c.379.344.545.882.43 1.397l-.585 2.626c-.14.63.512 1.13 1.045.792l2.227-1.404z" fill="#C4C4C4"/><path d="M20.76 10.48a1.473 1.473 0 011.48.002l2.412 1.41c.578.337 1.284-.162 1.132-.793l-.633-2.626a1.393 1.393 0 01.466-1.397l2.12-1.773c.508-.426.235-1.233-.433-1.284l-2.805-.23a1.443 1.443 0 01-1.206-.85L22.198.445c-.258-.595-1.14-.595-1.398 0l-1.093 2.486c-.21.48-.675.806-1.206.85l-2.805.23c-.669.05-.942.858-.433 1.283l2.119 1.774c.41.344.59.882.466 1.397l-.633 2.626c-.152.63.554 1.13 1.132.792l2.412-1.404z" fill="#5F7698"/></svg>