<svg width="16" height="16" viewBox="0 0 16 16" fill="none" xmlns="http://www.w3.org/2000/svg">
<path d="M14.6667 5.53193C14.6667 6.61981 14.6667 7.66483 14.6614 8.70985C14.6614 8.79559 14.6185 8.88134 14.581 8.96172C13.9432 10.3765 13.3002 11.7859 12.6624 13.2007C12.5874 13.3669 12.5017 13.4205 12.3195 13.4205C9.90252 13.4151 7.48022 13.4151 5.06329 13.4205C4.82213 13.4205 4.76318 13.3508 4.76318 13.115C4.76854 10.7302 4.76318 8.35079 4.7739 5.96601C4.7739 5.8106 4.83285 5.62839 4.92396 5.49977C5.6903 4.40652 6.47808 3.31864 7.24443 2.22539C7.36233 2.05926 7.48023 1.99495 7.68387 2.00031C8.18226 2.01638 8.68065 2.00567 9.2112 2.00567C9.20048 2.26826 9.19512 2.51478 9.17905 2.76129C9.1201 3.59731 9.06115 4.43332 8.98612 5.26933C8.96468 5.49977 9.05043 5.53728 9.25407 5.53728C10.9422 5.53193 12.6303 5.53193 14.313 5.53193C14.4256 5.53193 14.5327 5.53193 14.6667 5.53193Z" fill="#8E8F8F"/>
<path d="M3.96899 13.4204C3.08386 13.4204 2.21862 13.4204 1.3335 13.4204C1.3335 10.7831 1.3335 8.15661 1.3335 5.51392C2.20371 5.51392 3.07391 5.51392 3.96899 5.51392C3.96899 8.1404 3.96899 10.7669 3.96899 13.4204Z" fill="#8E8F8F"/>
</svg>
