<svg width="19" height="18" viewBox="0 0 19 18" fill="none" xmlns="http://www.w3.org/2000/svg">
<g clip-path="url(#clip0)">
<path d="M16.8408 6.22342C16.8408 7.44729 16.8408 8.62293 16.8349 9.79858C16.8349 9.89504 16.7874 9.9915 16.7458 10.0819C16.0393 11.6736 15.3267 13.2592 14.6202 14.8508C14.537 15.0377 14.442 15.098 14.2402 15.098C11.5623 15.092 8.87852 15.092 6.20067 15.098C5.93348 15.098 5.86816 15.0196 5.86816 14.7544C5.8741 12.0715 5.86816 9.39464 5.88004 6.71176C5.88004 6.53692 5.94535 6.33194 6.04629 6.18724C6.89537 4.95734 7.76819 3.73346 8.61727 2.50356C8.74789 2.31666 8.87852 2.24432 9.10415 2.25035C9.65635 2.26843 10.2085 2.25637 10.7964 2.25637C10.7845 2.55179 10.7785 2.82912 10.7607 3.10646C10.6954 4.04697 10.6301 4.98748 10.547 5.928C10.5232 6.18724 10.6182 6.22945 10.8439 6.22945C12.7142 6.22342 14.5845 6.22342 16.4489 6.22342C16.5736 6.22342 16.6924 6.22342 16.8408 6.22342Z" fill="white"/>
<path d="M4.98787 15.0979C4.00719 15.0979 3.04855 15.0979 2.06787 15.0979C2.06787 12.131 2.06787 9.17616 2.06787 6.20312C3.03202 6.20312 3.99617 6.20312 4.98787 6.20312C4.98787 9.15792 4.98787 12.1127 4.98787 15.0979Z" fill="white"/>
</g>
<defs>
<clipPath id="clip0">
<rect width="17.7273" height="18" fill="white" transform="translate(0.59082)"/>
</clipPath>
</defs>
</svg>
