<svg width="18" height="18" viewBox="0 0 18 18" fill="none" xmlns="http://www.w3.org/2000/svg">
<g clip-path="url(#clip0)">
<g clip-path="url(#clip1)">
<path d="M11.0795 9C11.0795 10.2405 10.0853 11.25 8.86363 11.25C7.64193 11.25 6.64772 10.2405 6.64772 9C6.64772 7.7595 7.64193 6.75 8.86363 6.75C10.0853 6.75 11.0795 7.7595 11.0795 9ZM17.7273 8.66325C17.7273 8.66325 14.5866 14.25 8.87471 14.25C3.57131 14.25 0 8.66325 0 8.66325C0 8.66325 3.28398 3.75 8.87471 3.75C14.5578 3.75 17.7273 8.66325 17.7273 8.66325ZM12.5568 9C12.5568 6.92925 10.9037 5.25 8.86363 5.25C6.82426 5.25 5.17045 6.92925 5.17045 9C5.17045 11.0715 6.82426 12.75 8.86363 12.75C10.9037 12.75 12.5568 11.0715 12.5568 9Z" fill="white"/>
</g>
</g>
<defs>
<clipPath id="clip0">
<rect width="17.7273" height="18" fill="white"/>
</clipPath>
<clipPath id="clip1">
<rect width="17.7273" height="18" fill="white"/>
</clipPath>
</defs>
</svg>
